<?xml version="1.0" encoding="UTF-8"?>
<svg id="Layer_1" data-name="Layer 1" xmlns="http://www.w3.org/2000/svg" viewBox="0 0 800 800">
  <defs>
    <style>
      .cls-1 {
        fill: #4a6e56;
      }
    </style>
  </defs>
  <path class="cls-1" d="M401.74,604.46l-55.13-31.82c-5.06-2.92-11.38.73-11.38,6.57v94.82c0,8.07,4.29,15.53,11.26,19.59l55.19,32.13c5.06,2.95,11.4-.7,11.4-6.56v-95.1c0-8.1-4.32-15.59-11.34-19.63Z"/>
  <path class="cls-1" d="M585.15,390.16l-160.89,93.73c-6.92,4.03-11.18,11.44-11.18,19.45v94.73c0,5.75,6.22,9.35,11.21,6.48l160.82-92.53c6.98-4.02,11.29-11.46,11.29-19.51v-95.89c0-5.77-6.26-9.37-11.24-6.46Z"/>
  <path class="cls-1" d="M413.07,477.29v-64.35c0-8.09-4.31-15.56-11.32-19.61l-186.79-107.89c-5.05-2.92-11.36.73-11.36,6.56v64.53c0,8.09,4.32,15.57,11.33,19.62l186.78,107.71c5.05,2.91,11.35-.73,11.35-6.56Z"/>
  <path class="cls-1" d="M413.13,322.38c-.07,17.39-.13,48.13.22,65.21.12,5.67,6.27,9.1,11.17,6.27l109.3-63.27c6.96-4.03,11.25-11.46,11.25-19.5v-65.15c0-5.74-6.22-9.32-11.18-6.44l-109.53,63.51c-6.92,4.01-11.2,11.37-11.23,19.37Z"/>
  <path class="cls-1" d="M293.38,239.8l108.35,63.08c5.03,2.93,11.34-.7,11.34-6.52v-64.41c0-8.04-4.29-15.48-11.26-19.5l-108.31-62.56c-5.03-2.9-11.32.72-11.32,6.53v63.91c0,8.02,4.26,15.43,11.19,19.46Z"/>
  <path class="cls-1" d="M424.39,212.24l30-17.78c6.87-4.07,11.08-11.47,11.08-19.46v-94.29c0-5.73-6.16-9.34-11.16-6.54l-29.68,16.64c-7.14,4-11.56,11.55-11.56,19.73v95.25c0,5.81,6.32,9.41,11.32,6.45Z"/>
</svg>