<?xml version="1.0" encoding="UTF-8"?>
<svg id="Layer_1" data-name="Layer 1" xmlns="http://www.w3.org/2000/svg" viewBox="0 0 2765.55 665">
  <defs>
    <style>
      .cls-1 {
        fill: #4a6e56;
      }
    </style>
  </defs>
  <path class="cls-1" d="M275.58,489.62l-42.37-24.45c-3.89-2.24-8.75.56-8.75,5.05v72.87c0,6.2,3.3,11.93,8.65,15.05l42.41,24.69c3.89,2.26,8.76-.54,8.76-5.04v-73.09c0-6.22-3.32-11.98-8.71-15.09Z"/>
  <path class="cls-1" d="M416.52,324.94l-123.64,72.03c-5.32,3.1-8.59,8.79-8.59,14.95v72.8c0,4.42,4.78,7.19,8.61,4.98l123.59-71.1c5.37-3.09,8.67-8.81,8.67-15v-73.69c0-4.43-4.81-7.2-8.64-4.97Z"/>
  <path class="cls-1" d="M284.29,391.9v-49.45c0-6.22-3.32-11.96-8.7-15.07l-143.54-82.91c-3.88-2.24-8.73.56-8.73,5.04v49.59c0,6.22,3.32,11.97,8.71,15.08l143.54,82.77c3.88,2.24,8.72-.56,8.72-5.04Z"/>
  <path class="cls-1" d="M284.33,272.85c-.06,13.36-.1,36.99.17,50.11.09,4.35,4.82,7,8.59,4.81l84-48.62c5.35-3.1,8.64-8.81,8.64-14.99v-50.06c0-4.41-4.78-7.16-8.59-4.95l-84.18,48.8c-5.32,3.08-8.61,8.74-8.63,14.89Z"/>
  <path class="cls-1" d="M192.31,209.39l83.27,48.47c3.86,2.25,8.71-.54,8.71-5.01v-49.5c0-6.18-3.3-11.89-8.65-14.99l-83.23-48.07c-3.86-2.23-8.7.56-8.7,5.02v49.12c0,6.16,3.28,11.86,8.6,14.96Z"/>
  <path class="cls-1" d="M292.99,188.21l23.05-13.67c5.28-3.13,8.52-8.81,8.52-14.95v-72.46c0-4.4-4.74-7.18-8.58-5.02l-22.81,12.79c-5.49,3.07-8.88,8.87-8.88,15.16v73.2c0,4.46,4.86,7.23,8.7,4.95Z"/>
  <path class="cls-1" d="M783.42,306.82c6.56-10.8,9.83-23.49,9.83-38.06,0-25.5-8.74-45.29-26.23-59.38-17.49-14.08-41.53-21.13-72.12-21.13h-146.43v295.05h50.63v-116.93h143.88v116.93h50.27v-111.1c0-12.62-3.4-22.28-10.2-28.96-6.8-6.68-16.39-10.02-28.78-10.02v-1.46c12.87-5.83,22.58-14.14,29.14-24.95ZM729.69,311.37c-9.11,8.01-22.04,12.02-38.79,12.02h-91.79v-91.79h91.79c16.76,0,29.69,3.95,38.79,11.84,9.11,7.89,13.66,19.25,13.66,34.06s-4.55,25.86-13.66,33.88Z"/>
  <path class="cls-1" d="M980.68,274.22c-17-9.23-37.28-13.84-60.83-13.84s-43.59,4.68-60.83,14.02c-17.25,9.35-30.54,22.53-39.89,39.52-9.35,17-14.02,37.04-14.02,60.1s4.74,43.11,14.21,60.1c9.47,17,22.77,30.18,39.89,39.52,17.12,9.35,37.21,14.02,60.28,14.02s43.89-4.61,61.01-13.84c17.12-9.23,30.29-22.4,39.52-39.52,9.23-17.12,13.84-37.21,13.84-60.28s-4.62-43.47-13.84-60.47c-9.23-17-22.35-30.11-39.34-39.34ZM967.38,425.75c-11.29,12.63-27.26,18.94-47.9,18.94s-36.31-6.31-47.72-18.94c-11.42-12.62-17.12-29.87-17.12-51.72s5.7-39.4,17.12-51.91c11.41-12.5,27.32-18.76,47.72-18.76s36.61,6.19,47.9,18.58c11.29,12.38,16.94,29.75,16.94,52.09s-5.65,39.1-16.94,51.72Z"/>
  <path class="cls-1" d="M1259.62,433.4h-19.14v-88.52c0-27.44-8.26-48.38-24.77-62.83-16.52-14.45-40.43-21.67-71.76-21.67-27.93,0-50.58,6.07-67.94,18.21-17.37,12.15-28.11,29.51-32.24,52.09h49.54c5.58-20.15,22.34-30.23,50.27-30.23,33.02,0,49.54,14.57,49.54,43.71v9.11h-69.21c-27.2,0-48.08,5.83-62.65,17.49-14.57,11.66-21.86,28.05-21.86,49.18s7.22,36.43,21.67,48.81c14.45,12.38,34.18,18.58,59.19,18.58,18.21,0,33.75-3.4,46.63-10.2,12.87-6.8,23.07-16.27,30.6-28.41h15.3v30.07c0,2.51,2.03,4.54,4.54,4.54h30.58c8.97,0,16.25-7.27,16.25-16.25v-29.12c0-2.51-2.03-4.54-4.54-4.54ZM1193.13,394.79c0,9.96-2.86,19-8.56,27.14-5.71,8.14-13.54,14.63-23.5,19.49-9.96,4.86-21.13,7.29-33.51,7.29s-22.95-2.73-30.23-8.2c-7.29-5.46-10.93-13.05-10.93-22.77,0-19.91,13.35-29.87,40.07-29.87h66.66v6.92Z"/>
  <path class="cls-1" d="M1546.21,260.74c-34,0-59.01,13.11-75.04,39.34h-1.09c-7.53-13.11-17.43-22.95-29.69-29.51-12.26-6.56-27.02-9.83-44.26-9.83s-32.36,3.34-44.62,10.02c-12.26,6.68-21.8,16.21-28.59,28.59h-16.76v-30.07c0-2.51-2.03-4.54-4.54-4.54h-30.94c-8.97,0-16.25,7.27-16.25,16.25v29.12c0,2.51,2.03,4.54,4.54,4.54h20.6v168.65h49.54v-124.94c0-17.72,4.31-31.14,12.93-40.25,8.62-9.11,21.31-13.66,38.07-13.66,34.72,0,52.09,17.97,52.09,53.91v124.94h49.54v-124.94c0-35.94,17.24-53.91,51.72-53.91s51.72,17.97,51.72,53.91v124.94h49.54v-133.68c0-27.44-7.89-49.11-23.68-65.02-15.79-15.9-37.4-23.86-64.84-23.86Z"/>
  <path class="cls-1" d="M1779.44,356.18l-48.81-9.47c-9.72-1.94-16.82-4.79-21.31-8.56-4.5-3.76-6.74-8.68-6.74-14.75,0-8.25,3.52-14.57,10.56-18.94,7.04-4.37,17.12-6.56,30.23-6.56,14.81,0,26.16,2.68,34.06,8.01,7.89,5.34,13.17,13.6,15.85,24.77h47.72c-1.95-22.09-11.24-39.34-27.87-51.72-16.64-12.38-39.04-18.58-67.21-18.58s-49.9,6.01-65.93,18.03-24.04,28.23-24.04,48.63c0,31.82,21,51.73,63.02,59.74l48.45,9.11c10.68,1.95,18.33,4.98,22.95,9.11,4.61,4.13,6.92,9.83,6.92,17.12,0,17.97-15.06,26.95-45.17,26.95-17.48,0-30.84-2.91-40.07-8.74-9.23-5.83-14.7-14.69-16.39-26.59h-48.45c1.7,23.31,11.53,41.47,29.5,54.46,17.97,12.99,42.49,19.49,73.58,19.49s52.82-6.13,68.84-18.4c16.03-12.26,24.04-29.32,24.04-51.18,0-17-5.1-30.54-15.3-40.62-10.2-10.08-26.35-17.18-48.45-21.31Z"/>
  <path class="cls-1" d="M1933.78,303.36h53.91v-38.61h-54.28v-65.57h-48.81v65.57h-39.71v38.61h39.34v138.78c0,13.84,3.7,24.17,11.11,30.96,7.4,6.8,17.79,10.2,31.14,10.2h66.66v-38.98h-59.37v-140.97Z"/>
  <path class="cls-1" d="M2161.26,273.31c-15.79-8.62-34.6-12.93-56.46-12.93s-42.62,4.62-59.38,13.84c-16.76,9.23-29.69,22.28-38.79,39.16-9.11,16.88-13.66,36.85-13.66,59.92s4.61,43.23,13.84,60.47c9.23,17.24,22.4,30.54,39.52,39.89,17.12,9.35,37.21,14.02,60.28,14.02,27.2,0,49.84-6.38,67.94-19.12,18.09-12.75,29.81-30.54,35.15-53.36h-50.27c-3.4,10.69-9.6,18.7-18.58,24.04-8.99,5.34-20.52,8.01-34.6,8.01-19.19,0-34.49-5.4-45.9-16.21-11.42-10.8-18.09-26.16-20.03-46.08h170.48v-18.21c0-21.86-4.31-40.73-12.93-56.64-8.62-15.9-20.83-28.17-36.61-36.79ZM2041.78,350.35c3.4-16.03,10.56-28.35,21.49-36.97,10.93-8.62,24.77-12.93,41.53-12.93s30.23,4.31,40.43,12.93c10.2,8.62,16.27,20.94,18.21,36.97h-121.66Z"/>
  <path class="cls-1" d="M2437.57,433.4h-19.14v-88.52c0-27.44-8.26-48.38-24.77-62.83-16.52-14.45-40.43-21.67-71.76-21.67-27.93,0-50.58,6.07-67.94,18.21-17.37,12.15-28.11,29.51-32.24,52.09h49.54c5.58-20.15,22.34-30.23,50.27-30.23,33.02,0,49.54,14.57,49.54,43.71v9.11h-69.21c-27.2,0-48.08,5.83-62.65,17.49-14.57,11.66-21.86,28.05-21.86,49.18s7.22,36.43,21.67,48.81c14.45,12.38,34.18,18.58,59.19,18.58,18.21,0,33.75-3.4,46.63-10.2,12.87-6.8,23.07-16.27,30.6-28.41h15.3v30.07c0,2.51,2.03,4.54,4.54,4.54h30.58c8.97,0,16.25-7.27,16.25-16.25v-29.12c0-2.51-2.03-4.54-4.54-4.54ZM2371.08,394.79c0,9.96-2.86,19-8.56,27.14-5.71,8.14-13.54,14.63-23.5,19.49-9.96,4.86-21.13,7.29-33.51,7.29s-22.95-2.73-30.23-8.2c-7.29-5.46-10.93-13.05-10.93-22.77,0-19.91,13.35-29.87,40.07-29.87h66.66v6.92Z"/>
  <path class="cls-1" d="M2682.82,433.4h-20.23V177.32h-49.54v120.21h-1.46c-6.56-11.9-15.91-21.07-28.05-27.5-12.15-6.43-26.72-9.65-43.71-9.65-20.64,0-38.43,4.62-53.36,13.84-14.93,9.23-26.35,22.4-34.24,39.52-7.89,17.12-11.84,37.22-11.84,60.29s4.01,43.11,12.02,60.1c8.01,17,19.79,30.18,35.33,39.52,15.54,9.35,34.36,14.02,56.46,14.02,17.97,0,33.33-3.34,46.08-10.02,12.75-6.68,22.89-16.33,30.42-28.96h15.3v30.07c0,2.51,2.03,4.54,4.54,4.54h30.58c8.97,0,16.25-7.27,16.25-16.25v-29.12c0-2.51-2.03-4.54-4.54-4.54ZM2613.05,387.14c0,17.73-5.46,31.82-16.39,42.25-10.93,10.44-25.62,15.66-44.08,15.66-20.16,0-35.64-6.31-46.44-18.94-10.81-12.62-16.21-29.99-16.21-52.09s5.4-39.46,16.21-52.09c10.8-12.62,26.28-18.94,46.44-18.94,18.45,0,33.15,5.23,44.08,15.66,10.93,10.44,16.39,24.53,16.39,42.26v26.23Z"/>
</svg>