<?xml version="1.0" encoding="UTF-8"?>
<svg id="Layer_1" data-name="Layer 1" xmlns="http://www.w3.org/2000/svg" viewBox="0 0 2320.32 817.41">
  <defs>
    <style>
      .cls-1 {
        fill: #fff;
      }
    </style>
  </defs>
  <path class="cls-1" d="M1476.47,360.15v59.5c0,3.61,3.91,5.87,7.04,4.07l101.01-58.12c4.39-2.52,7.09-7.2,7.09-12.26v-60.23c0-3.62-3.93-5.88-7.06-4.06l-101.06,58.87c-4.35,2.53-7.02,7.19-7.02,12.22Z"/>
  <path class="cls-1" d="M1352.02,280.25l117.32,67.65c3.17,1.83,7.13-.46,7.13-4.12v-40.42c0-5.08-2.71-9.78-7.11-12.32l-117.32-67.77c-3.17-1.83-7.13.46-7.13,4.12v40.53c0,5.08,2.71,9.78,7.12,12.32Z"/>
  <path class="cls-1" d="M1476.51,246.48c-.05,10.92-.08,30.23.14,40.96.07,3.56,3.94,5.72,7.02,3.94l68.65-39.74c4.37-2.53,7.06-7.2,7.06-12.25v-40.92c0-3.6-3.9-5.85-7.02-4.04l-68.8,39.89c-4.35,2.52-7.03,7.14-7.06,12.17Z"/>
  <path class="cls-1" d="M1401.29,194.62l68.06,39.62c3.16,1.84,7.12-.44,7.12-4.09v-40.46c0-5.05-2.7-9.72-7.07-12.25l-68.03-39.29c-3.16-1.82-7.11.46-7.11,4.1v40.14c0,5.04,2.68,9.69,7.03,12.22Z"/>
  <path class="cls-1" d="M1483.58,177.31l18.84-11.17c4.32-2.56,6.96-7.2,6.96-12.22v-59.22c0-3.6-3.87-5.86-7.01-4.11l-18.64,10.45c-4.48,2.51-7.26,7.25-7.26,12.39v59.83c0,3.65,3.97,5.91,7.11,4.05Z"/>
  <path class="cls-1" d="M326.4,546.58c6.56-10.8,9.83-23.49,9.83-38.06,0-25.5-8.74-45.29-26.23-59.38-17.49-14.08-41.53-21.13-72.12-21.13H91.45v295.05h50.63v-116.93h143.88v116.93h50.27v-111.1c0-12.62-3.4-22.28-10.2-28.96-6.8-6.68-16.39-10.02-28.78-10.02v-1.46c12.87-5.83,22.58-14.14,29.14-24.95ZM272.67,551.13c-9.11,8.01-22.04,12.02-38.79,12.02h-91.79v-91.79h91.79c16.76,0,29.69,3.95,38.79,11.84,9.11,7.89,13.66,19.25,13.66,34.06s-4.55,25.86-13.66,33.88Z"/>
  <path class="cls-1" d="M523.66,513.97c-17-9.23-37.28-13.84-60.83-13.84s-43.59,4.68-60.83,14.02c-17.25,9.35-30.54,22.53-39.89,39.52-9.35,17-14.02,37.04-14.02,60.1s4.74,43.11,14.21,60.1c9.47,17,22.77,30.18,39.89,39.52,17.12,9.35,37.21,14.02,60.28,14.02s43.89-4.61,61.01-13.84c17.12-9.23,30.29-22.4,39.52-39.52,9.23-17.12,13.84-37.21,13.84-60.29s-4.62-43.47-13.84-60.47c-9.23-17-22.35-30.11-39.34-39.34ZM510.36,665.51c-11.29,12.63-27.26,18.94-47.9,18.94s-36.31-6.31-47.72-18.94c-11.42-12.62-17.12-29.87-17.12-51.73s5.7-39.4,17.12-51.91c11.41-12.5,27.32-18.76,47.72-18.76s36.61,6.19,47.9,18.58c11.29,12.38,16.94,29.75,16.94,52.09s-5.65,39.1-16.94,51.73Z"/>
  <path class="cls-1" d="M802.61,673.16h-19.14v-88.52c0-27.44-8.26-48.38-24.77-62.83-16.52-14.45-40.43-21.67-71.76-21.67-27.93,0-50.58,6.07-67.94,18.21-17.37,12.15-28.11,29.51-32.24,52.09h49.54c5.58-20.15,22.34-30.23,50.27-30.23,33.02,0,49.54,14.57,49.54,43.71v9.11h-69.21c-27.2,0-48.08,5.83-62.65,17.49-14.57,11.66-21.86,28.05-21.86,49.17s7.22,36.43,21.67,48.81c14.45,12.38,34.18,18.58,59.19,18.58,18.21,0,33.75-3.4,46.63-10.2,12.87-6.8,23.07-16.27,30.6-28.41h15.3v30.07c0,2.51,2.03,4.54,4.54,4.54h30.58c8.97,0,16.25-7.27,16.25-16.25v-29.12c0-2.51-2.03-4.54-4.54-4.54ZM736.11,634.54c0,9.96-2.86,19-8.56,27.14-5.71,8.14-13.54,14.63-23.5,19.49-9.96,4.86-21.13,7.29-33.51,7.29s-22.95-2.73-30.23-8.2c-7.29-5.46-10.93-13.05-10.93-22.77,0-19.91,13.35-29.87,40.07-29.87h66.66v6.92Z"/>
  <path class="cls-1" d="M1089.19,500.5c-34,0-59.01,13.11-75.04,39.34h-1.09c-7.53-13.11-17.43-22.95-29.69-29.51-12.26-6.56-27.02-9.83-44.26-9.83s-32.36,3.34-44.62,10.02c-12.26,6.68-21.8,16.21-28.59,28.59h-16.76v-30.07c0-2.51-2.03-4.54-4.54-4.54h-30.94c-8.97,0-16.25,7.27-16.25,16.25v29.12c0,2.51,2.03,4.54,4.54,4.54h20.6v168.65h49.54v-124.94c0-17.72,4.31-31.14,12.93-40.25,8.62-9.11,21.31-13.66,38.07-13.66,34.72,0,52.09,17.98,52.09,53.91v124.94h49.54v-124.94c0-35.94,17.24-53.91,51.72-53.91s51.72,17.98,51.72,53.91v124.94h49.54v-133.68c0-27.44-7.89-49.11-23.68-65.02-15.79-15.9-37.4-23.86-64.84-23.86Z"/>
  <path class="cls-1" d="M1322.42,595.93l-48.81-9.47c-9.72-1.94-16.82-4.79-21.31-8.56-4.5-3.76-6.74-8.68-6.74-14.75,0-8.25,3.52-14.57,10.56-18.94,7.04-4.37,17.12-6.56,30.23-6.56,14.81,0,26.16,2.68,34.06,8.01,7.89,5.34,13.17,13.6,15.85,24.77h47.72c-1.95-22.09-11.24-39.34-27.87-51.72-16.64-12.38-39.04-18.58-67.21-18.58s-49.9,6.01-65.93,18.03c-16.03,12.02-24.04,28.23-24.04,48.63,0,31.82,21,51.73,63.02,59.74l48.45,9.11c10.68,1.95,18.33,4.98,22.95,9.11,4.61,4.13,6.92,9.83,6.92,17.12,0,17.97-15.06,26.95-45.17,26.95-17.48,0-30.84-2.91-40.07-8.74-9.23-5.83-14.7-14.69-16.39-26.59h-48.45c1.7,23.31,11.53,41.47,29.5,54.46,17.97,12.99,42.49,19.49,73.58,19.49s52.82-6.13,68.84-18.4c16.03-12.26,24.04-29.32,24.04-51.18,0-17-5.1-30.54-15.3-40.62-10.2-10.08-26.35-17.18-48.45-21.31Z"/>
  <path class="cls-1" d="M1476.76,543.12h53.91v-38.61h-54.28v-7.97c.04-.26.07-.53.07-.81v-59.73c0-5.09-2.71-9.79-7.12-12.33l-34.63-19.99c-3.18-1.83-7.15.46-7.15,4.13v59.56c0,.16.01.31.02.47v36.68h-39.71v38.61h39.34v138.78c0,13.84,3.7,24.17,11.11,30.96,7.4,6.8,17.79,10.2,31.14,10.2h66.66v-38.98h-59.37v-140.97Z"/>
  <path class="cls-1" d="M1704.24,513.06c-15.79-8.62-34.6-12.93-56.46-12.93s-42.62,4.62-59.38,13.84c-16.76,9.23-29.69,22.28-38.79,39.16-9.11,16.88-13.66,36.85-13.66,59.92s4.61,43.23,13.84,60.47c9.23,17.24,22.4,30.54,39.52,39.89,17.12,9.35,37.21,14.02,60.28,14.02,27.2,0,49.84-6.38,67.94-19.12,18.09-12.75,29.81-30.54,35.15-53.37h-50.27c-3.4,10.69-9.6,18.7-18.58,24.04-8.99,5.34-20.52,8.01-34.6,8.01-19.19,0-34.49-5.4-45.9-16.21-11.42-10.8-18.09-26.16-20.03-46.08h170.48v-18.21c0-21.86-4.31-40.73-12.93-56.64-8.62-15.9-20.83-28.17-36.61-36.79ZM1584.77,590.1c3.4-16.03,10.56-28.35,21.49-36.97,10.93-8.62,24.77-12.93,41.53-12.93s30.23,4.31,40.43,12.93c10.2,8.62,16.27,20.94,18.21,36.97h-121.66Z"/>
  <path class="cls-1" d="M1980.55,673.16h-19.14v-88.52c0-27.44-8.26-48.38-24.77-62.83-16.52-14.45-40.43-21.67-71.76-21.67-27.93,0-50.58,6.07-67.94,18.21-17.37,12.15-28.11,29.51-32.24,52.09h49.54c5.58-20.15,22.34-30.23,50.27-30.23,33.02,0,49.54,14.57,49.54,43.71v9.11h-69.21c-27.2,0-48.08,5.83-62.65,17.49-14.57,11.66-21.86,28.05-21.86,49.17s7.22,36.43,21.67,48.81c14.45,12.38,34.18,18.58,59.19,18.58,18.21,0,33.75-3.4,46.63-10.2,12.87-6.8,23.07-16.27,30.6-28.41h15.3v30.07c0,2.51,2.03,4.54,4.54,4.54h30.58c8.97,0,16.25-7.27,16.25-16.25v-29.12c0-2.51-2.03-4.54-4.54-4.54ZM1914.06,634.54c0,9.96-2.86,19-8.56,27.14-5.71,8.14-13.54,14.63-23.5,19.49-9.96,4.86-21.13,7.29-33.51,7.29s-22.95-2.73-30.23-8.2c-7.29-5.46-10.93-13.05-10.93-22.77,0-19.91,13.35-29.87,40.07-29.87h66.66v6.92Z"/>
  <path class="cls-1" d="M2225.81,673.16h-20.23v-256.08h-49.54v120.21h-1.46c-6.56-11.9-15.91-21.06-28.05-27.5-12.15-6.43-26.72-9.65-43.71-9.65-20.64,0-38.43,4.62-53.36,13.84-14.93,9.23-26.35,22.4-34.24,39.52-7.89,17.12-11.84,37.22-11.84,60.29s4.01,43.11,12.02,60.1c8.01,17,19.79,30.18,35.33,39.52,15.54,9.35,34.36,14.02,56.46,14.02,17.97,0,33.33-3.34,46.08-10.02,12.75-6.68,22.89-16.33,30.42-28.96h15.3v30.07c0,2.51,2.03,4.54,4.54,4.54h30.58c8.97,0,16.25-7.27,16.25-16.25v-29.12c0-2.51-2.03-4.54-4.54-4.54ZM2156.03,626.9c0,17.73-5.46,31.82-16.39,42.25-10.93,10.44-25.62,15.66-44.08,15.66-20.16,0-35.64-6.31-46.44-18.94-10.81-12.62-16.21-29.99-16.21-52.09s5.4-39.46,16.21-52.09c10.8-12.62,26.28-18.94,46.44-18.94,18.45,0,33.15,5.23,44.08,15.66,10.93,10.44,16.39,24.53,16.39,42.26v26.23Z"/>
</svg>